<svg xmlns="http://www.w3.org/2000/svg" xmlns:xlink="http://www.w3.org/1999/xlink" width="1920" zoomAndPan="magnify" viewBox="0 0 1440 809.999993" height="1080" preserveAspectRatio="xMidYMid meet" version="1.0"><path fill="#ffffff" d="M 740.082031 124.304688 C 739.691406 124.21875 739.300781 124.171875 738.90625 124.164062 C 738.507812 124.15625 738.117188 124.1875 737.726562 124.261719 C 737.335938 124.332031 736.957031 124.4375 736.589844 124.585938 C 736.21875 124.730469 735.871094 124.914062 735.539062 125.128906 C 735.203125 125.34375 734.898438 125.589844 734.613281 125.867188 C 734.328125 126.144531 734.074219 126.445312 733.851562 126.773438 C 733.628906 127.097656 733.4375 127.445312 733.285156 127.808594 C 733.128906 128.175781 733.011719 128.550781 732.929688 128.9375 C 731.988281 131.871094 731.570312 134.878906 731.679688 137.957031 C 731.789062 141.039062 732.421875 144.007812 733.570312 146.863281 C 733.652344 147.226562 733.789062 147.566406 733.980469 147.882812 C 734.171875 148.199219 734.40625 148.480469 734.6875 148.722656 C 734.96875 148.964844 735.28125 149.15625 735.621094 149.300781 C 735.964844 149.441406 736.320312 149.527344 736.6875 149.558594 C 737.058594 149.585938 737.421875 149.554688 737.785156 149.46875 C 738.144531 149.378906 738.480469 149.238281 738.796875 149.042969 C 739.109375 148.84375 739.386719 148.605469 739.625 148.320312 C 739.859375 148.035156 740.046875 147.722656 740.183594 147.375 C 741.539062 145.390625 742.582031 143.25 743.320312 140.960938 C 744.054688 138.671875 744.449219 136.324219 744.507812 133.917969 C 744.671875 128.121094 743.167969 125.164062 740.082031 124.304688 Z M 740.082031 124.304688 " fill-opacity="1" fill-rule="nonzero"/><path fill="#ffffff" d="M 512.285156 119.386719 C 511.933594 119.445312 511.59375 119.535156 511.261719 119.660156 C 510.929688 119.785156 510.613281 119.941406 510.3125 120.125 C 510.007812 120.3125 509.726562 120.523438 509.464844 120.765625 C 509.207031 121.003906 508.96875 121.265625 508.757812 121.550781 C 508.546875 121.835938 508.367188 122.140625 508.214844 122.457031 C 508.0625 122.777344 507.941406 123.109375 507.855469 123.453125 C 507.765625 123.796875 507.710938 124.144531 507.6875 124.5 C 507.667969 124.851562 507.679688 125.207031 507.726562 125.558594 C 507.945312 128.773438 509.5625 130.441406 512.378906 130.480469 C 512.734375 130.46875 513.082031 130.417969 513.425781 130.332031 C 513.769531 130.246094 514.097656 130.125 514.414062 129.96875 C 514.734375 129.8125 515.03125 129.625 515.308594 129.402344 C 515.585938 129.183594 515.835938 128.9375 516.0625 128.664062 C 516.285156 128.390625 516.480469 128.097656 516.640625 127.78125 C 516.804688 127.46875 516.929688 127.140625 517.023438 126.796875 C 517.117188 126.457031 517.171875 126.109375 517.191406 125.757812 C 517.210938 125.402344 517.191406 125.050781 517.136719 124.703125 C 517.148438 124.367188 517.132812 124.035156 517.082031 123.707031 C 517.03125 123.375 516.949219 123.050781 516.835938 122.738281 C 516.722656 122.421875 516.582031 122.125 516.40625 121.835938 C 516.234375 121.550781 516.035156 121.285156 515.8125 121.039062 C 515.585938 120.792969 515.339844 120.570312 515.070312 120.371094 C 514.800781 120.171875 514.515625 120.003906 514.210938 119.859375 C 513.910156 119.71875 513.59375 119.609375 513.269531 119.527344 C 512.945312 119.449219 512.617188 119.398438 512.285156 119.386719 Z M 512.285156 119.386719 " fill-opacity="1" fill-rule="nonzero"/><path fill="#ffffff" d="M 753.347656 134.503906 C 750.5 134.390625 749.417969 136.726562 749.410156 139.585938 C 749.410156 142.34375 749.679688 145.464844 752.8125 145.695312 C 756.046875 145.941406 756.332031 142.808594 756.71875 140.167969 C 756.644531 137.378906 756.398438 134.625 753.347656 134.503906 Z M 753.347656 134.503906 " fill-opacity="1" fill-rule="nonzero"/><path fill="#ffffff" d="M 398.675781 131.945312 C 393.117188 136.367188 390.871094 149.78125 394.519531 156.289062 C 397.292969 161.234375 400.703125 163.683594 403.484375 162.707031 C 406.394531 161.683594 408.015625 157.730469 407.980469 150.394531 C 407.398438 144.601562 405.9375 139.039062 403.597656 133.707031 C 402.59375 131.324219 400.851562 130.214844 398.675781 131.945312 Z M 398.675781 131.945312 " fill-opacity="1" fill-rule="nonzero"/><path fill="#ffffff" d="M 201.449219 121.609375 C 199.835938 125.1875 198.726562 128.914062 198.125 132.792969 C 197.523438 136.671875 197.453125 140.5625 197.90625 144.460938 C 197.929688 144.914062 197.996094 145.363281 198.097656 145.808594 C 198.203125 146.25 198.34375 146.683594 198.523438 147.101562 C 198.703125 147.519531 198.914062 147.921875 199.164062 148.304688 C 199.414062 148.683594 199.695312 149.042969 200.003906 149.375 C 200.316406 149.707031 200.65625 150.011719 201.019531 150.285156 C 201.382812 150.558594 201.769531 150.800781 202.175781 151.003906 C 202.582031 151.210938 203 151.382812 203.4375 151.515625 C 203.875 151.648438 204.316406 151.742188 204.769531 151.796875 C 207.929688 151.859375 210.503906 149.082031 211.535156 144.414062 C 211.730469 143.261719 211.867188 142.101562 211.945312 140.9375 C 211.230469 134.585938 209.816406 128.394531 207.695312 122.363281 C 206.664062 119.03125 202.636719 118.550781 201.449219 121.609375 Z M 201.449219 121.609375 " fill-opacity="1" fill-rule="nonzero"/><path fill="#ffffff" d="M 102.667969 149.652344 C 102.164062 147.613281 101.191406 146.339844 99.339844 146.128906 C 97.191406 145.882812 96.652344 147.820312 96.007812 149.523438 C 94.429688 154.582031 93.609375 159.757812 93.550781 165.058594 C 93.695312 166.242188 93.816406 167.816406 94.082031 169.363281 C 94.859375 173.886719 97.761719 176.925781 100.890625 176.558594 C 104.136719 176.183594 106.910156 172.261719 106.90625 167.882812 C 106.894531 166.59375 106.730469 165.324219 106.40625 164.078125 C 105.199219 159.257812 103.859375 154.480469 102.667969 149.652344 Z M 102.667969 149.652344 " fill-opacity="1" fill-rule="nonzero"/><path fill="#ffffff" d="M 335.480469 116.996094 C 335.011719 117.023438 334.550781 117.097656 334.097656 117.214844 C 333.644531 117.332031 333.207031 117.492188 332.785156 117.691406 C 332.363281 117.894531 331.960938 118.136719 331.585938 118.417969 C 331.210938 118.699219 330.867188 119.011719 330.550781 119.359375 C 330.238281 119.707031 329.957031 120.082031 329.71875 120.480469 C 329.476562 120.882812 329.273438 121.304688 329.117188 121.746094 C 328.957031 122.1875 328.839844 122.636719 328.769531 123.101562 C 328.695312 123.5625 328.671875 124.03125 328.691406 124.5 C 328.625 128.644531 331.628906 132.71875 334.839844 132.835938 C 335.324219 132.789062 335.796875 132.695312 336.261719 132.554688 C 336.722656 132.417969 337.171875 132.238281 337.601562 132.015625 C 338.03125 131.792969 338.4375 131.53125 338.816406 131.230469 C 339.199219 130.933594 339.546875 130.601562 339.867188 130.234375 C 340.183594 129.871094 340.464844 129.480469 340.710938 129.058594 C 340.957031 128.640625 341.160156 128.207031 341.320312 127.75 C 341.484375 127.292969 341.601562 126.824219 341.675781 126.347656 C 341.75 125.867188 341.777344 125.386719 341.761719 124.902344 C 341.820312 120.359375 339.203125 117.058594 335.480469 116.996094 Z M 335.480469 116.996094 " fill-opacity="1" fill-rule="nonzero"/><path fill="#ffffff" d="M 1432.011719 79.269531 C 1428.578125 62.734375 1422.5625 47.207031 1413.957031 32.679688 C 1413.003906 31.035156 1411.953125 29.457031 1410.804688 27.945312 C 1409.65625 26.433594 1408.417969 24.996094 1407.09375 23.632812 C 1405.769531 22.273438 1404.363281 21 1402.882812 19.8125 C 1401.398438 18.621094 1399.851562 17.53125 1398.234375 16.53125 C 1396.617188 15.535156 1394.945312 14.640625 1393.21875 13.851562 C 1391.488281 13.058594 1389.722656 12.378906 1387.910156 11.804688 C 1386.097656 11.230469 1384.257812 10.769531 1382.390625 10.425781 C 1380.523438 10.078125 1378.640625 9.847656 1376.746094 9.730469 C 1372.949219 9.230469 1369.140625 9.007812 1365.3125 9.074219 C 1361.484375 9.136719 1357.679688 9.480469 1353.902344 10.105469 C 1350.125 10.734375 1346.417969 11.636719 1342.773438 12.8125 C 1339.128906 13.988281 1335.59375 15.429688 1332.164062 17.128906 C 1319.671875 23.582031 1306.085938 22.257812 1292.769531 21.222656 C 1278.492188 20.113281 1265.042969 14.535156 1251.210938 11 C 1236.953125 7.078125 1222.464844 4.363281 1207.753906 2.855469 C 1186.671875 1.089844 1167.324219 8.65625 1148.621094 18.6875 C 1139.394531 23.632812 1130.410156 29.085938 1120.046875 30.320312 C 1111.855469 31.417969 1103.632812 31.710938 1095.382812 31.207031 C 1087.128906 30.703125 1079.003906 29.410156 1071.007812 27.320312 C 1065.804688 25.777344 1060.515625 24.601562 1055.148438 23.796875 C 1049.78125 22.992188 1044.382812 22.566406 1038.957031 22.515625 C 1033.527344 22.46875 1028.121094 22.796875 1022.742188 23.503906 C 1017.359375 24.210938 1012.054688 25.289062 1006.820312 26.742188 C 999.839844 28.851562 993.425781 32.085938 987.574219 36.441406 C 983.9375 35.421875 980.234375 34.933594 976.460938 34.96875 C 972.6875 35.003906 968.992188 35.566406 965.375 36.648438 C 954.292969 40.265625 942.96875 42.785156 931.398438 44.210938 C 918.511719 45.613281 905.828125 43.097656 893.066406 41.953125 C 846.09375 37.75 799.285156 31.054688 752.128906 29.484375 C 741.917969 28.746094 731.769531 29.261719 721.683594 31.035156 C 720.277344 31.335938 718.910156 31.699219 717.582031 32.121094 C 716.25 31.695312 714.882812 31.335938 713.480469 31.035156 C 703.394531 29.265625 693.246094 28.746094 683.03125 29.484375 C 635.878906 31.054688 589.070312 37.753906 542.09375 41.953125 C 529.332031 43.097656 516.652344 45.613281 503.765625 44.210938 C 492.195312 42.785156 480.867188 40.265625 469.785156 36.648438 C 466.167969 35.566406 462.476562 35.003906 458.699219 34.96875 C 454.925781 34.933594 451.222656 35.421875 447.585938 36.441406 C 441.738281 32.085938 435.320312 28.851562 428.339844 26.742188 C 423.109375 25.289062 417.804688 24.210938 412.421875 23.503906 C 407.039062 22.796875 401.636719 22.46875 396.207031 22.515625 C 390.78125 22.566406 385.382812 22.992188 380.015625 23.796875 C 374.644531 24.601562 369.359375 25.777344 364.15625 27.320312 C 356.15625 29.40625 348.03125 30.703125 339.78125 31.207031 C 331.53125 31.710938 323.308594 31.417969 315.117188 30.320312 C 304.753906 29.097656 295.765625 23.632812 286.542969 18.6875 C 267.84375 8.65625 248.488281 1.089844 227.40625 2.855469 C 212.695312 4.363281 198.210938 7.078125 183.953125 11 C 170.121094 14.535156 156.667969 20.113281 142.394531 21.222656 C 129.078125 22.257812 115.492188 23.582031 102.996094 17.128906 C 99.566406 15.429688 96.03125 13.988281 92.386719 12.8125 C 88.746094 11.636719 85.035156 10.734375 81.257812 10.105469 C 77.480469 9.480469 73.679688 9.136719 69.851562 9.074219 C 66.023438 9.007812 62.210938 9.230469 58.417969 9.730469 C 56.519531 9.847656 54.640625 10.078125 52.773438 10.425781 C 50.902344 10.769531 49.0625 11.230469 47.253906 11.804688 C 45.441406 12.378906 43.671875 13.058594 41.945312 13.851562 C 40.21875 14.640625 38.546875 15.535156 36.929688 16.535156 C 35.3125 17.53125 33.765625 18.621094 32.28125 19.8125 C 30.800781 21 29.394531 22.273438 28.070312 23.632812 C 26.746094 24.996094 25.507812 26.433594 24.359375 27.945312 C 23.210938 29.457031 22.160156 31.035156 21.207031 32.679688 C 12.601562 47.207031 6.582031 62.734375 3.152344 79.269531 C -0.132812 95.070312 3.761719 105.753906 15.738281 112.351562 C 22.746094 116.210938 27.585938 120.234375 27.183594 130.386719 C 27.191406 131.128906 27.273438 131.867188 27.421875 132.59375 C 27.570312 133.324219 27.789062 134.03125 28.070312 134.71875 C 28.355469 135.40625 28.703125 136.0625 29.113281 136.683594 C 29.519531 137.304688 29.984375 137.882812 30.503906 138.417969 C 31.023438 138.949219 31.585938 139.429688 32.199219 139.855469 C 32.808594 140.28125 33.453125 140.648438 34.132812 140.949219 C 34.8125 141.253906 35.515625 141.488281 36.238281 141.660156 C 36.964844 141.828125 37.699219 141.929688 38.441406 141.957031 C 43.855469 142.277344 47.582031 138.707031 49.082031 131.515625 C 49.960938 126.277344 50.355469 121.003906 50.273438 115.695312 C 50.03125 114.261719 50.070312 112.835938 50.386719 111.417969 C 50.703125 110.003906 51.273438 108.695312 52.101562 107.503906 C 53.527344 109.003906 54.667969 110.699219 55.519531 112.585938 C 56.375 114.46875 56.898438 116.441406 57.089844 118.503906 C 59.167969 130.574219 59.570312 142.699219 58.292969 154.878906 C 58.035156 156.746094 57.949219 158.621094 58.035156 160.503906 C 58.121094 162.390625 58.378906 164.25 58.808594 166.085938 C 59.238281 167.921875 59.828125 169.703125 60.585938 171.429688 C 61.34375 173.160156 62.25 174.800781 63.308594 176.363281 C 68.296875 183.414062 75.753906 182.675781 79.746094 174.886719 C 81.183594 172.097656 82.144531 169.152344 82.617188 166.050781 C 85.628906 148.164062 86.433594 130.179688 85.03125 112.097656 C 84.65625 108.109375 84.046875 104.148438 83.707031 100.171875 C 83.5625 98.507812 83.472656 96.476562 85.292969 95.808594 C 86.878906 95.226562 88.226562 96.203125 89.289062 97.554688 C 90.746094 99.472656 91.878906 101.5625 92.691406 103.832031 C 93.5 106.101562 93.945312 108.4375 94.03125 110.847656 C 94.148438 114.113281 94.675781 117.3125 95.613281 120.441406 C 96.554688 123.570312 97.878906 126.53125 99.582031 129.320312 C 103.339844 135.167969 108.460938 138.378906 114.875 137.328125 C 121.019531 136.324219 123.769531 130.878906 125.53125 124.777344 C 127.394531 118.414062 128.214844 111.917969 127.984375 105.289062 C 127.945312 105.054688 127.929688 104.820312 127.9375 104.582031 C 127.945312 104.34375 127.980469 104.109375 128.042969 103.882812 C 128.101562 103.652344 128.183594 103.429688 128.292969 103.21875 C 128.398438 103.003906 128.527344 102.804688 128.675781 102.621094 C 128.824219 102.4375 128.992188 102.269531 129.179688 102.121094 C 129.363281 101.972656 129.5625 101.84375 129.777344 101.738281 C 129.988281 101.632812 130.210938 101.550781 130.441406 101.492188 C 130.671875 101.433594 130.90625 101.402344 131.144531 101.394531 C 133.117188 101.101562 134.460938 101.976562 134.925781 104.480469 C 135.308594 106.886719 135.519531 109.3125 135.566406 111.75 C 135.589844 121.089844 136.925781 130.242188 139.578125 139.199219 C 142.726562 148.253906 149.777344 152.308594 157.476562 149.125 C 158.875 148.46875 160.171875 147.648438 161.363281 146.667969 C 162.554688 145.683594 163.605469 144.570312 164.515625 143.320312 C 165.425781 142.074219 166.164062 140.730469 166.734375 139.296875 C 167.304688 137.859375 167.6875 136.375 167.882812 134.84375 C 169.0625 128.992188 169.769531 123.011719 170.6875 117.101562 C 170.730469 116.566406 170.816406 116.039062 170.953125 115.519531 C 171.085938 114.996094 171.269531 114.492188 171.492188 114.007812 C 171.71875 113.519531 171.988281 113.054688 172.296875 112.617188 C 172.605469 112.175781 172.949219 111.765625 173.332031 111.390625 C 173.714844 111.011719 174.128906 110.671875 174.570312 110.367188 C 175.015625 110.0625 175.480469 109.800781 175.972656 109.582031 C 176.460938 109.363281 176.96875 109.1875 177.488281 109.058594 C 178.011719 108.929688 178.539062 108.847656 179.078125 108.816406 C 181.933594 108.390625 184.761719 107.714844 187.601562 107.164062 C 195.355469 105.351562 203.214844 104.542969 211.175781 104.738281 C 238.402344 106.394531 265.628906 108.070312 292.886719 108.894531 C 304.554688 109.269531 316.015625 107.898438 327.265625 104.785156 C 331.167969 103.746094 335.125 102.960938 339.128906 102.425781 C 345.976562 101.4375 348.761719 103.199219 351.863281 110.132812 C 353.457031 114.007812 355.300781 117.757812 357.390625 121.382812 C 366.851562 136.675781 383.015625 136.84375 392.707031 121.71875 C 394.367188 118.882812 396.261719 116.210938 398.382812 113.699219 C 402.578125 109.136719 406.785156 109.15625 411.027344 113.613281 C 412.050781 114.773438 412.960938 116.023438 413.757812 117.355469 C 414.550781 118.6875 415.214844 120.078125 415.753906 121.535156 C 416.289062 122.988281 416.6875 124.480469 416.949219 126.007812 C 417.210938 127.535156 417.328125 129.074219 417.304688 130.625 C 417.835938 145.460938 432.847656 159.398438 448.355469 156.929688 C 448.96875 156.847656 449.574219 156.714844 450.167969 156.535156 C 450.761719 156.359375 451.335938 156.132812 451.894531 155.867188 C 452.453125 155.597656 452.988281 155.285156 453.5 154.933594 C 454.011719 154.582031 454.492188 154.191406 454.941406 153.765625 C 455.390625 153.339844 455.804688 152.878906 456.183594 152.386719 C 456.5625 151.894531 456.898438 151.378906 457.195312 150.835938 C 457.492188 150.289062 457.746094 149.726562 457.957031 149.140625 C 458.164062 148.558594 458.328125 147.960938 458.445312 147.351562 C 459.628906 142.835938 459.695312 138.300781 458.648438 133.75 C 458.3125 132.367188 458.113281 130.964844 458.046875 129.542969 C 457.980469 128.121094 458.050781 126.703125 458.253906 125.296875 C 458.457031 123.886719 458.789062 122.507812 459.257812 121.164062 C 459.722656 119.820312 460.308594 118.53125 461.019531 117.296875 C 461.777344 115.964844 462.441406 114.566406 463.148438 113.195312 C 463.660156 116.253906 464.519531 119.210938 465.726562 122.066406 C 466.929688 124.921875 468.449219 127.601562 470.285156 130.101562 C 476.789062 138.480469 483.101562 137.753906 488.027344 128.0625 C 490.953125 121.609375 493.144531 114.910156 494.597656 107.972656 C 495.835938 103.136719 496.289062 102.863281 500.414062 104.863281 C 505.601562 107.679688 511.105469 109.570312 516.929688 110.535156 C 534.875 112.710938 552.527344 110.207031 570.15625 106.65625 C 581.28125 104.410156 592.421875 101.953125 603.8125 102.972656 C 611.585938 103.667969 619.351562 104.242188 627.148438 104.253906 C 639.589844 104.277344 652.035156 104.332031 664.480469 104.515625 C 671.460938 104.617188 674.800781 108.082031 675.824219 115.945312 C 676.28125 119.488281 676.371094 123.097656 676.953125 126.609375 C 677.566406 130.328125 679.046875 133.539062 682.941406 133.675781 C 686.710938 133.808594 688.554688 131.058594 689.609375 127.347656 C 691.128906 121.957031 691.890625 116.464844 691.902344 110.863281 C 694.8125 111.789062 695.226562 113.792969 695.316406 116.277344 C 695.261719 124.175781 696.03125 131.996094 697.621094 139.734375 C 699.460938 147.089844 704.214844 151.347656 709.726562 151.078125 C 714.671875 150.847656 717.101562 146.734375 719.636719 142.78125 C 725.039062 134.347656 726.597656 124.507812 727.78125 114.492188 C 728.382812 109.363281 728.945312 108.945312 733.054688 110.730469 C 735.992188 112.105469 739.074219 112.984375 742.292969 113.371094 C 745.515625 113.757812 748.714844 113.632812 751.898438 112.996094 C 759.238281 111.4375 766.460938 109.675781 772.285156 104.492188 C 784.210938 104.324219 796.136719 104.265625 808.0625 104.246094 C 815.859375 104.246094 823.625 103.664062 831.394531 102.964844 C 842.785156 101.945312 853.925781 104.417969 865.050781 106.644531 C 882.671875 110.195312 900.324219 112.703125 918.277344 110.527344 C 924.101562 109.5625 929.609375 107.671875 934.796875 104.855469 C 938.914062 102.855469 939.367188 103.125 940.613281 107.964844 C 942.066406 114.902344 944.253906 121.597656 947.179688 128.054688 C 952.101562 137.742188 958.414062 138.46875 964.921875 130.089844 C 966.757812 127.59375 968.277344 124.914062 969.484375 122.058594 C 970.6875 119.203125 971.546875 116.246094 972.058594 113.1875 C 972.765625 114.558594 973.433594 115.957031 974.1875 117.289062 C 974.898438 118.519531 975.488281 119.808594 975.953125 121.15625 C 976.417969 122.5 976.753906 123.878906 976.957031 125.285156 C 977.160156 126.695312 977.226562 128.109375 977.160156 129.53125 C 977.09375 130.953125 976.894531 132.359375 976.5625 133.742188 C 975.511719 138.292969 975.578125 142.828125 976.765625 147.34375 C 976.882812 147.953125 977.042969 148.550781 977.253906 149.132812 C 977.460938 149.71875 977.714844 150.28125 978.011719 150.828125 C 978.308594 151.371094 978.644531 151.890625 979.023438 152.382812 C 979.402344 152.875 979.816406 153.332031 980.265625 153.761719 C 980.714844 154.1875 981.195312 154.578125 981.707031 154.929688 C 982.21875 155.28125 982.753906 155.589844 983.3125 155.859375 C 983.871094 156.128906 984.449219 156.351562 985.042969 156.527344 C 985.636719 156.707031 986.242188 156.839844 986.855469 156.921875 C 1001.136719 159.195312 1014.988281 147.550781 1017.503906 134.109375 C 1017.925781 134.648438 1018.449219 135.0625 1019.070312 135.351562 C 1019.6875 135.640625 1020.34375 135.777344 1021.027344 135.757812 C 1023.84375 135.714844 1025.460938 134.050781 1025.679688 130.832031 C 1025.726562 130.480469 1025.738281 130.128906 1025.71875 129.773438 C 1025.695312 129.421875 1025.640625 129.074219 1025.554688 128.730469 C 1025.464844 128.386719 1025.34375 128.054688 1025.191406 127.734375 C 1025.039062 127.414062 1024.859375 127.113281 1024.648438 126.828125 C 1024.4375 126.542969 1024.203125 126.28125 1023.941406 126.039062 C 1023.679688 125.800781 1023.398438 125.585938 1023.097656 125.402344 C 1022.792969 125.214844 1022.476562 125.0625 1022.144531 124.9375 C 1021.8125 124.8125 1021.472656 124.71875 1021.125 124.660156 C 1020.121094 124.621094 1019.226562 124.910156 1018.4375 125.535156 C 1018.785156 123.304688 1019.445312 121.175781 1020.425781 119.144531 C 1021.402344 117.113281 1022.65625 115.265625 1024.1875 113.609375 C 1028.425781 109.152344 1032.621094 109.136719 1036.828125 113.695312 C 1038.953125 116.207031 1040.84375 118.878906 1042.503906 121.71875 C 1052.199219 136.839844 1068.359375 136.671875 1077.820312 121.378906 C 1079.914062 117.753906 1081.753906 114.003906 1083.347656 110.128906 C 1086.453125 103.195312 1089.234375 101.433594 1096.085938 102.421875 C 1100.089844 102.957031 1104.042969 103.746094 1107.949219 104.78125 C 1119.179688 107.875 1130.621094 109.234375 1142.265625 108.851562 C 1169.527344 108.03125 1196.753906 106.355469 1223.980469 104.695312 C 1231.941406 104.503906 1239.796875 105.3125 1247.554688 107.121094 C 1250.394531 107.675781 1253.222656 108.351562 1256.078125 108.773438 C 1256.613281 108.808594 1257.144531 108.890625 1257.664062 109.019531 C 1258.1875 109.148438 1258.691406 109.324219 1259.183594 109.542969 C 1259.671875 109.761719 1260.140625 110.023438 1260.582031 110.328125 C 1261.027344 110.628906 1261.441406 110.972656 1261.820312 111.347656 C 1262.203125 111.726562 1262.550781 112.136719 1262.859375 112.574219 C 1263.167969 113.015625 1263.433594 113.476562 1263.660156 113.964844 C 1263.886719 114.453125 1264.066406 114.957031 1264.203125 115.476562 C 1264.335938 115.996094 1264.425781 116.523438 1264.464844 117.0625 C 1265.386719 122.984375 1266.089844 128.960938 1267.269531 134.804688 C 1267.464844 136.335938 1267.847656 137.820312 1268.417969 139.253906 C 1268.988281 140.691406 1269.726562 142.03125 1270.636719 143.28125 C 1271.546875 144.527344 1272.597656 145.644531 1273.789062 146.625 C 1274.980469 147.609375 1276.273438 148.429688 1277.671875 149.082031 C 1285.375 152.28125 1292.429688 148.210938 1295.574219 139.15625 C 1298.226562 130.199219 1299.5625 121.050781 1299.589844 111.710938 C 1299.632812 109.269531 1299.84375 106.847656 1300.226562 104.4375 C 1300.699219 101.941406 1302.039062 101.054688 1304.007812 101.351562 C 1304.246094 101.359375 1304.480469 101.394531 1304.710938 101.453125 C 1304.941406 101.511719 1305.160156 101.59375 1305.375 101.699219 C 1305.585938 101.804688 1305.785156 101.929688 1305.972656 102.082031 C 1306.15625 102.230469 1306.324219 102.394531 1306.472656 102.582031 C 1306.625 102.765625 1306.753906 102.964844 1306.859375 103.175781 C 1306.964844 103.390625 1307.050781 103.609375 1307.109375 103.839844 C 1307.167969 104.070312 1307.203125 104.304688 1307.210938 104.542969 C 1307.222656 104.78125 1307.203125 105.015625 1307.164062 105.25 C 1306.9375 111.875 1307.753906 118.371094 1309.617188 124.738281 C 1311.382812 130.84375 1314.128906 136.285156 1320.277344 137.285156 C 1321.121094 137.425781 1321.972656 137.488281 1322.828125 137.476562 C 1322.121094 140.328125 1321.644531 143.21875 1321.398438 146.148438 C 1321.539062 147.363281 1321.570312 148.523438 1321.8125 149.625 C 1322.839844 154.296875 1325.417969 157.070312 1328.574219 157.007812 C 1329.027344 156.953125 1329.472656 156.859375 1329.90625 156.726562 C 1330.34375 156.59375 1330.765625 156.425781 1331.171875 156.21875 C 1331.578125 156.011719 1331.960938 155.769531 1332.328125 155.496094 C 1332.691406 155.222656 1333.027344 154.921875 1333.339844 154.585938 C 1333.652344 154.253906 1333.933594 153.898438 1334.179688 153.515625 C 1334.429688 153.132812 1334.644531 152.734375 1334.824219 152.3125 C 1335 151.894531 1335.144531 151.464844 1335.246094 151.019531 C 1335.351562 150.574219 1335.414062 150.125 1335.4375 149.671875 C 1335.855469 146.671875 1335.914062 143.667969 1335.613281 140.65625 C 1335.316406 137.644531 1334.667969 134.710938 1333.671875 131.851562 C 1334.359375 131.035156 1334.992188 130.179688 1335.570312 129.28125 C 1337.273438 126.492188 1338.59375 123.53125 1339.535156 120.398438 C 1340.476562 117.269531 1341.003906 114.070312 1341.117188 110.804688 C 1341.203125 108.398438 1341.648438 106.058594 1342.460938 103.792969 C 1343.269531 101.523438 1344.40625 99.429688 1345.863281 97.511719 C 1346.925781 96.160156 1348.269531 95.1875 1349.855469 95.769531 C 1351.679688 96.441406 1351.601562 98.472656 1351.445312 100.128906 C 1351.101562 104.121094 1350.492188 108.082031 1350.117188 112.054688 C 1348.71875 130.152344 1349.527344 148.152344 1352.550781 166.050781 C 1353.027344 169.152344 1353.984375 172.097656 1355.421875 174.886719 C 1359.410156 182.675781 1366.871094 183.414062 1371.855469 176.359375 C 1372.917969 174.800781 1373.824219 173.15625 1374.582031 171.429688 C 1375.339844 169.703125 1375.929688 167.917969 1376.359375 166.082031 C 1376.789062 164.246094 1377.046875 162.386719 1377.132812 160.503906 C 1377.21875 158.617188 1377.132812 156.742188 1376.875 154.875 C 1375.597656 142.695312 1376 130.570312 1378.082031 118.5 C 1378.269531 116.4375 1378.789062 114.464844 1379.644531 112.582031 C 1380.5 110.695312 1381.640625 109 1383.066406 107.5 C 1383.894531 108.695312 1384.46875 110 1384.785156 111.417969 C 1385.101562 112.835938 1385.136719 114.257812 1384.894531 115.691406 C 1384.808594 121 1385.207031 126.277344 1386.089844 131.511719 C 1387.585938 138.703125 1391.324219 142.273438 1396.726562 141.953125 C 1397.472656 141.925781 1398.203125 141.824219 1398.929688 141.65625 C 1399.652344 141.484375 1400.355469 141.25 1401.035156 140.945312 C 1401.714844 140.644531 1402.359375 140.277344 1402.96875 139.851562 C 1403.582031 139.425781 1404.144531 138.945312 1404.664062 138.414062 C 1405.183594 137.878906 1405.648438 137.300781 1406.054688 136.679688 C 1406.464844 136.058594 1406.8125 135.402344 1407.097656 134.714844 C 1407.378906 134.027344 1407.597656 133.320312 1407.746094 132.589844 C 1407.898438 131.863281 1407.976562 131.125 1407.984375 130.382812 C 1407.582031 120.234375 1412.421875 116.210938 1419.429688 112.347656 C 1431.402344 105.753906 1435.296875 95.070312 1432.011719 79.269531 Z M 1432.011719 79.269531 " fill-opacity="1" fill-rule="nonzero"/><path fill="#ffffff" d="M 780.007812 139.734375 C 776.957031 139.855469 776.710938 142.605469 776.644531 145.40625 C 777.027344 148.046875 777.3125 151.179688 780.550781 150.929688 C 783.675781 150.695312 783.949219 147.570312 783.945312 144.824219 C 783.9375 141.953125 782.859375 139.621094 780.007812 139.734375 Z M 780.007812 139.734375 " fill-opacity="1" fill-rule="nonzero"/><path fill="#ffffff" d="M 1134.683594 137.175781 C 1132.511719 135.429688 1130.769531 136.554688 1129.757812 138.921875 C 1127.417969 144.253906 1125.957031 149.820312 1125.378906 155.613281 C 1125.339844 162.945312 1126.972656 166.898438 1129.875 167.921875 C 1132.65625 168.902344 1136.0625 166.46875 1138.84375 161.507812 C 1142.488281 155.011719 1140.230469 141.597656 1134.683594 137.175781 Z M 1134.683594 137.175781 " fill-opacity="1" fill-rule="nonzero"/><path fill="#ffffff" d="M 1437.351562 154.753906 C 1436.703125 153.050781 1436.167969 151.109375 1434.019531 151.359375 C 1432.164062 151.570312 1431.191406 152.851562 1430.691406 154.878906 C 1429.496094 159.707031 1428.160156 164.476562 1426.949219 169.304688 C 1426.628906 170.554688 1426.460938 171.824219 1426.449219 173.113281 C 1426.449219 177.476562 1429.222656 181.414062 1432.46875 181.789062 C 1435.597656 182.152344 1438.496094 179.117188 1439.277344 174.589844 C 1439.539062 173.046875 1439.664062 171.472656 1439.804688 170.285156 C 1439.746094 164.988281 1438.929688 159.808594 1437.351562 154.753906 Z M 1437.351562 154.753906 " fill-opacity="1" fill-rule="nonzero"/><path fill="#ffffff" d="M 1197.875 122.230469 C 1194.160156 122.28125 1191.535156 125.585938 1191.597656 130.136719 C 1191.582031 130.621094 1191.609375 131.101562 1191.683594 131.582031 C 1191.757812 132.058594 1191.875 132.527344 1192.039062 132.984375 C 1192.199219 133.441406 1192.402344 133.878906 1192.648438 134.296875 C 1192.894531 134.714844 1193.175781 135.105469 1193.492188 135.472656 C 1193.8125 135.835938 1194.160156 136.167969 1194.542969 136.46875 C 1194.921875 136.765625 1195.328125 137.027344 1195.757812 137.25 C 1196.1875 137.472656 1196.636719 137.652344 1197.097656 137.789062 C 1197.5625 137.929688 1198.035156 138.023438 1198.519531 138.070312 C 1201.71875 137.953125 1204.734375 133.882812 1204.667969 129.734375 C 1204.6875 129.265625 1204.660156 128.800781 1204.589844 128.335938 C 1204.515625 127.871094 1204.402344 127.421875 1204.242188 126.980469 C 1204.082031 126.539062 1203.882812 126.117188 1203.640625 125.714844 C 1203.398438 125.316406 1203.121094 124.941406 1202.804688 124.59375 C 1202.492188 124.246094 1202.148438 123.933594 1201.769531 123.652344 C 1201.394531 123.371094 1200.996094 123.128906 1200.574219 122.929688 C 1200.152344 122.726562 1199.710938 122.566406 1199.257812 122.449219 C 1198.804688 122.332031 1198.34375 122.257812 1197.875 122.230469 Z M 1197.875 122.230469 " fill-opacity="1" fill-rule="nonzero"/><path fill="#ffffff" d="M 946.207031 31.101562 C 945.6875 30.785156 945.132812 30.539062 944.550781 30.367188 C 943.964844 30.195312 943.367188 30.101562 942.761719 30.085938 C 942.152344 30.070312 941.550781 30.136719 940.957031 30.28125 C 940.367188 30.421875 939.804688 30.640625 939.269531 30.933594 C 938.683594 31.246094 938.152344 31.632812 937.671875 32.089844 C 937.191406 32.546875 936.777344 33.058594 936.4375 33.628906 C 936.09375 34.199219 935.835938 34.800781 935.65625 35.441406 C 935.480469 36.078125 935.386719 36.730469 935.386719 37.394531 C 935.390625 37.707031 935.414062 38.023438 935.457031 38.332031 C 935.5 38.644531 935.5625 38.953125 935.644531 39.253906 C 935.726562 39.558594 935.832031 39.855469 935.953125 40.144531 C 936.074219 40.433594 936.214844 40.714844 936.371094 40.984375 C 936.53125 41.257812 936.703125 41.519531 936.898438 41.765625 C 937.089844 42.015625 937.296875 42.25 937.519531 42.472656 C 937.738281 42.695312 937.976562 42.902344 938.226562 43.09375 C 938.472656 43.285156 938.734375 43.460938 939.007812 43.617188 C 939.277344 43.777344 939.558594 43.914062 939.847656 44.035156 C 940.136719 44.160156 940.433594 44.261719 940.738281 44.34375 C 941.042969 44.425781 941.347656 44.488281 941.660156 44.53125 C 941.972656 44.574219 942.285156 44.597656 942.597656 44.601562 C 942.914062 44.605469 943.226562 44.585938 943.539062 44.546875 C 943.851562 44.511719 944.15625 44.453125 944.460938 44.375 C 944.765625 44.296875 945.066406 44.199219 945.355469 44.082031 C 945.648438 43.964844 945.933594 43.832031 946.207031 43.675781 C 946.472656 43.511719 946.726562 43.332031 946.972656 43.132812 C 947.214844 42.9375 947.445312 42.722656 947.664062 42.496094 C 947.878906 42.269531 948.082031 42.03125 948.269531 41.777344 C 948.453125 41.527344 948.625 41.261719 948.777344 40.988281 C 948.929688 40.714844 949.066406 40.433594 949.183594 40.140625 C 949.296875 39.851562 949.398438 39.554688 949.476562 39.25 C 949.554688 38.945312 949.613281 38.636719 949.652344 38.328125 C 949.695312 38.015625 949.714844 37.703125 949.714844 37.390625 C 949.714844 37.078125 949.695312 36.765625 949.652344 36.453125 C 949.613281 36.140625 949.554688 35.832031 949.476562 35.53125 C 949.398438 35.226562 949.296875 34.929688 949.183594 34.636719 C 949.066406 34.347656 948.929688 34.0625 948.777344 33.789062 C 948.625 33.515625 948.453125 33.253906 948.269531 33 C 948.082031 32.75 947.878906 32.507812 947.664062 32.28125 C 947.445312 32.054688 947.214844 31.84375 946.972656 31.644531 C 946.726562 31.449219 946.472656 31.269531 946.207031 31.101562 Z M 946.207031 31.101562 " fill-opacity="1" fill-rule="nonzero"/><path fill="#ffffff" d="M 727.296875 28.597656 C 727.789062 28.574219 728.257812 28.457031 728.707031 28.253906 C 729.15625 28.050781 729.550781 27.769531 729.890625 27.414062 C 730.230469 27.054688 730.492188 26.648438 730.675781 26.191406 C 730.855469 25.734375 730.949219 25.257812 730.949219 24.765625 C 730.949219 24.273438 730.855469 23.800781 730.675781 23.34375 C 730.492188 22.886719 730.230469 22.476562 729.890625 22.121094 C 729.550781 21.765625 729.15625 21.484375 728.707031 21.28125 C 728.257812 21.074219 727.789062 20.960938 727.296875 20.9375 C 726.804688 20.960938 726.335938 21.074219 725.886719 21.28125 C 725.4375 21.484375 725.046875 21.765625 724.707031 22.121094 C 724.367188 22.476562 724.105469 22.886719 723.921875 23.34375 C 723.738281 23.800781 723.644531 24.273438 723.644531 24.765625 C 723.644531 25.257812 723.738281 25.734375 723.921875 26.191406 C 724.105469 26.648438 724.367188 27.054688 724.707031 27.414062 C 725.046875 27.769531 725.4375 28.050781 725.886719 28.253906 C 726.335938 28.457031 726.804688 28.574219 727.296875 28.597656 Z M 727.296875 28.597656 " fill-opacity="1" fill-rule="nonzero"/><path fill="#ffffff" d="M 581.910156 34.261719 C 582.191406 34.246094 582.457031 34.179688 582.714844 34.0625 C 582.96875 33.945312 583.195312 33.785156 583.386719 33.582031 C 583.582031 33.378906 583.730469 33.144531 583.835938 32.886719 C 583.9375 32.625 583.992188 32.351562 583.992188 32.070312 C 583.992188 31.789062 583.9375 31.519531 583.835938 31.257812 C 583.730469 30.996094 583.582031 30.765625 583.386719 30.5625 C 583.195312 30.359375 582.96875 30.195312 582.714844 30.078125 C 582.457031 29.960938 582.191406 29.894531 581.910156 29.882812 C 581.628906 29.894531 581.363281 29.960938 581.105469 30.078125 C 580.851562 30.195312 580.625 30.359375 580.433594 30.5625 C 580.238281 30.765625 580.089844 30.996094 579.984375 31.257812 C 579.882812 31.519531 579.828125 31.789062 579.828125 32.070312 C 579.828125 32.351562 579.882812 32.625 579.984375 32.886719 C 580.089844 33.144531 580.238281 33.378906 580.433594 33.582031 C 580.625 33.785156 580.851562 33.945312 581.105469 34.0625 C 581.363281 34.179688 581.628906 34.246094 581.910156 34.261719 Z M 581.910156 34.261719 " fill-opacity="1" fill-rule="nonzero"/><path fill="#ffffff" d="M 1190.925781 52.160156 C 1190.804688 52.835938 1190.832031 53.507812 1191.015625 54.171875 C 1191.199219 54.832031 1191.515625 55.421875 1191.96875 55.941406 C 1192.082031 56.054688 1192.210938 56.140625 1192.355469 56.203125 C 1192.5 56.261719 1192.652344 56.292969 1192.8125 56.292969 C 1192.96875 56.292969 1193.121094 56.261719 1193.269531 56.203125 C 1193.414062 56.140625 1193.542969 56.054688 1193.65625 55.941406 C 1194.109375 55.425781 1194.429688 54.835938 1194.613281 54.171875 C 1194.800781 53.507812 1194.832031 52.839844 1194.710938 52.160156 C 1194.699219 51.917969 1194.640625 51.6875 1194.539062 51.46875 C 1194.4375 51.25 1194.296875 51.058594 1194.121094 50.890625 C 1193.945312 50.722656 1193.746094 50.597656 1193.519531 50.507812 C 1193.296875 50.417969 1193.0625 50.371094 1192.820312 50.371094 C 1192.578125 50.371094 1192.34375 50.417969 1192.121094 50.507812 C 1191.894531 50.597656 1191.695312 50.722656 1191.519531 50.890625 C 1191.34375 51.058594 1191.207031 51.25 1191.101562 51.46875 C 1191 51.6875 1190.945312 51.917969 1190.929688 52.160156 Z M 1190.925781 52.160156 " fill-opacity="1" fill-rule="nonzero"/><path fill="#ffffff" d="M 1060.34375 30.324219 C 1060.464844 30.613281 1060.578125 30.90625 1060.683594 31.226562 C 1060.765625 31.507812 1060.890625 31.765625 1061.058594 32.003906 C 1061.222656 32.238281 1061.421875 32.445312 1061.65625 32.617188 C 1061.886719 32.792969 1062.140625 32.925781 1062.417969 33.015625 C 1062.691406 33.105469 1062.976562 33.152344 1063.265625 33.152344 C 1063.554688 33.152344 1063.839844 33.105469 1064.113281 33.015625 C 1064.390625 32.925781 1064.644531 32.792969 1064.875 32.617188 C 1065.109375 32.445312 1065.308594 32.238281 1065.472656 32.003906 C 1065.640625 31.765625 1065.765625 31.507812 1065.847656 31.226562 C 1065.96875 30.921875 1066.066406 30.625 1066.191406 30.324219 C 1066.253906 30.097656 1066.292969 29.867188 1066.304688 29.628906 C 1066.316406 29.394531 1066.300781 29.160156 1066.257812 28.929688 C 1066.214844 28.699219 1066.148438 28.472656 1066.054688 28.257812 C 1065.957031 28.042969 1065.839844 27.839844 1065.699219 27.652344 C 1065.558594 27.464844 1065.394531 27.292969 1065.214844 27.144531 C 1065.03125 26.992188 1064.835938 26.863281 1064.625 26.757812 C 1064.414062 26.652344 1064.195312 26.574219 1063.964844 26.519531 C 1063.734375 26.464844 1063.503906 26.4375 1063.265625 26.4375 C 1063.03125 26.4375 1062.800781 26.464844 1062.570312 26.519531 C 1062.339844 26.574219 1062.121094 26.652344 1061.910156 26.757812 C 1061.699219 26.863281 1061.5 26.992188 1061.320312 27.144531 C 1061.140625 27.292969 1060.976562 27.464844 1060.835938 27.652344 C 1060.695312 27.839844 1060.578125 28.042969 1060.480469 28.257812 C 1060.386719 28.472656 1060.316406 28.699219 1060.273438 28.929688 C 1060.234375 29.160156 1060.21875 29.394531 1060.230469 29.628906 C 1060.242188 29.867188 1060.277344 30.097656 1060.34375 30.324219 Z M 1060.34375 30.324219 " fill-opacity="1" fill-rule="nonzero"/><path fill="#ffffff" d="M 1104.28125 43.570312 C 1104.777344 43.550781 1105.25 43.4375 1105.703125 43.234375 C 1106.15625 43.03125 1106.554688 42.753906 1106.894531 42.394531 C 1107.238281 42.039062 1107.503906 41.628906 1107.6875 41.171875 C 1107.875 40.710938 1107.964844 40.234375 1107.964844 39.738281 C 1107.964844 39.242188 1107.875 38.765625 1107.6875 38.304688 C 1107.503906 37.847656 1107.238281 37.4375 1106.894531 37.082031 C 1106.554688 36.722656 1106.15625 36.445312 1105.703125 36.242188 C 1105.25 36.039062 1104.777344 35.925781 1104.28125 35.90625 C 1103.789062 35.925781 1103.316406 36.039062 1102.863281 36.242188 C 1102.410156 36.445312 1102.011719 36.722656 1101.667969 37.082031 C 1101.328125 37.4375 1101.0625 37.847656 1100.878906 38.304688 C 1100.691406 38.765625 1100.597656 39.242188 1100.597656 39.738281 C 1100.597656 40.234375 1100.691406 40.710938 1100.878906 41.171875 C 1101.0625 41.628906 1101.328125 42.039062 1101.667969 42.394531 C 1102.011719 42.753906 1102.410156 43.03125 1102.863281 43.234375 C 1103.316406 43.4375 1103.789062 43.550781 1104.28125 43.570312 Z M 1104.28125 43.570312 " fill-opacity="1" fill-rule="nonzero"/><path fill="#ffffff" d="M 1286.019531 50.414062 C 1295.445312 50.414062 1295.445312 35.640625 1286.019531 35.640625 C 1276.589844 35.640625 1276.601562 50.414062 1286.019531 50.414062 Z M 1286.019531 50.414062 " fill-opacity="1" fill-rule="nonzero"/><path fill="#ffffff" d="M 253.167969 42.933594 C 253.050781 43.609375 253.082031 44.277344 253.265625 44.941406 C 253.449219 45.605469 253.765625 46.195312 254.21875 46.714844 C 254.328125 46.824219 254.460938 46.914062 254.605469 46.972656 C 254.753906 47.035156 254.90625 47.066406 255.0625 47.066406 C 255.222656 47.066406 255.375 47.035156 255.523438 46.972656 C 255.667969 46.914062 255.796875 46.824219 255.910156 46.714844 C 256.359375 46.195312 256.679688 45.601562 256.863281 44.941406 C 257.046875 44.277344 257.078125 43.609375 256.960938 42.933594 C 256.941406 42.695312 256.878906 42.46875 256.777344 42.253906 C 256.671875 42.039062 256.53125 41.851562 256.355469 41.6875 C 256.183594 41.527344 255.984375 41.402344 255.761719 41.316406 C 255.539062 41.226562 255.308594 41.183594 255.070312 41.183594 C 254.832031 41.183594 254.601562 41.226562 254.378906 41.316406 C 254.15625 41.402344 253.957031 41.527344 253.78125 41.6875 C 253.605469 41.851562 253.46875 42.039062 253.363281 42.253906 C 253.257812 42.46875 253.199219 42.695312 253.179688 42.933594 Z M 253.167969 42.933594 " fill-opacity="1" fill-rule="nonzero"/><path fill="#ffffff" d="M 122.597656 21.105469 C 122.710938 21.398438 122.824219 21.707031 122.933594 22.011719 C 123.015625 22.289062 123.140625 22.546875 123.308594 22.785156 C 123.472656 23.023438 123.671875 23.226562 123.90625 23.402344 C 124.136719 23.574219 124.390625 23.707031 124.667969 23.800781 C 124.941406 23.890625 125.226562 23.9375 125.515625 23.9375 C 125.804688 23.9375 126.085938 23.890625 126.363281 23.800781 C 126.636719 23.707031 126.890625 23.574219 127.125 23.402344 C 127.359375 23.226562 127.558594 23.023438 127.722656 22.785156 C 127.890625 22.546875 128.011719 22.289062 128.097656 22.011719 C 128.214844 21.707031 128.316406 21.40625 128.441406 21.105469 C 128.503906 20.878906 128.542969 20.648438 128.554688 20.414062 C 128.566406 20.179688 128.550781 19.945312 128.507812 19.714844 C 128.464844 19.484375 128.394531 19.261719 128.300781 19.042969 C 128.207031 18.828125 128.085938 18.628906 127.945312 18.441406 C 127.804688 18.25 127.640625 18.082031 127.460938 17.933594 C 127.28125 17.78125 127.085938 17.652344 126.875 17.550781 C 126.664062 17.445312 126.445312 17.363281 126.214844 17.308594 C 125.984375 17.257812 125.753906 17.230469 125.519531 17.230469 C 125.28125 17.230469 125.050781 17.257812 124.820312 17.308594 C 124.59375 17.363281 124.371094 17.445312 124.160156 17.550781 C 123.949219 17.652344 123.753906 17.78125 123.574219 17.933594 C 123.394531 18.082031 123.230469 18.25 123.089844 18.441406 C 122.949219 18.628906 122.832031 18.828125 122.734375 19.042969 C 122.640625 19.261719 122.574219 19.484375 122.53125 19.714844 C 122.488281 19.945312 122.472656 20.179688 122.480469 20.414062 C 122.492188 20.648438 122.53125 20.878906 122.597656 21.105469 Z M 122.597656 21.105469 " fill-opacity="1" fill-rule="nonzero"/><path fill="#ffffff" d="M 166.539062 34.34375 C 167.03125 34.320312 167.5 34.207031 167.949219 34 C 168.394531 33.796875 168.789062 33.515625 169.128906 33.160156 C 169.46875 32.804688 169.730469 32.394531 169.914062 31.9375 C 170.097656 31.480469 170.1875 31.007812 170.1875 30.515625 C 170.1875 30.023438 170.097656 29.546875 169.914062 29.089844 C 169.730469 28.632812 169.46875 28.226562 169.128906 27.871094 C 168.789062 27.511719 168.394531 27.230469 167.949219 27.027344 C 167.5 26.824219 167.03125 26.707031 166.539062 26.683594 C 166.046875 26.707031 165.578125 26.824219 165.128906 27.027344 C 164.679688 27.230469 164.285156 27.511719 163.945312 27.871094 C 163.605469 28.226562 163.34375 28.632812 163.164062 29.089844 C 162.980469 29.546875 162.886719 30.023438 162.886719 30.515625 C 162.886719 31.007812 162.980469 31.480469 163.164062 31.9375 C 163.34375 32.394531 163.605469 32.804688 163.945312 33.160156 C 164.285156 33.515625 164.679688 33.796875 165.128906 34 C 165.578125 34.207031 166.046875 34.320312 166.539062 34.34375 Z M 166.539062 34.34375 " fill-opacity="1" fill-rule="nonzero"/><path fill="#ffffff" d="M 524.386719 2.402344 C 524.265625 3.078125 524.296875 3.75 524.480469 4.414062 C 524.664062 5.074219 524.980469 5.664062 525.4375 6.183594 C 525.546875 6.292969 525.675781 6.378906 525.820312 6.441406 C 525.964844 6.5 526.117188 6.53125 526.273438 6.53125 C 526.433594 6.53125 526.582031 6.5 526.730469 6.441406 C 526.875 6.378906 527.003906 6.292969 527.113281 6.183594 C 527.566406 5.664062 527.886719 5.074219 528.074219 4.414062 C 528.257812 3.75 528.292969 3.078125 528.171875 2.402344 C 528.160156 2.160156 528.101562 1.929688 528 1.710938 C 527.898438 1.492188 527.757812 1.296875 527.582031 1.132812 C 527.40625 0.964844 527.207031 0.835938 526.980469 0.746094 C 526.757812 0.660156 526.523438 0.613281 526.28125 0.613281 C 526.039062 0.613281 525.804688 0.660156 525.582031 0.746094 C 525.355469 0.835938 525.15625 0.964844 524.980469 1.132812 C 524.804688 1.296875 524.667969 1.492188 524.5625 1.710938 C 524.460938 1.929688 524.40625 2.160156 524.390625 2.402344 Z M 524.386719 2.402344 " fill-opacity="1" fill-rule="nonzero"/><path fill="#ffffff" d="M 348.265625 41.191406 C 357.695312 41.191406 357.695312 26.414062 348.265625 26.414062 C 338.839844 26.414062 338.851562 41.191406 348.265625 41.191406 Z M 348.265625 41.191406 " fill-opacity="1" fill-rule="nonzero"/><path fill="#ffffff" d="M 450.78125 52.269531 C 451.230469 52.277344 451.671875 52.238281 452.113281 52.15625 C 452.550781 52.074219 452.980469 51.949219 453.394531 51.785156 C 453.808594 51.617188 454.203125 51.410156 454.578125 51.167969 C 454.949219 50.921875 455.296875 50.644531 455.617188 50.332031 C 455.9375 50.019531 456.222656 49.675781 456.472656 49.308594 C 456.726562 48.9375 456.9375 48.546875 457.113281 48.136719 C 457.289062 47.726562 457.421875 47.300781 457.511719 46.863281 C 457.601562 46.425781 457.648438 45.984375 457.652344 45.535156 C 457.65625 45.089844 457.617188 44.648438 457.53125 44.207031 C 457.449219 43.769531 457.320312 43.34375 457.152344 42.929688 C 456.984375 42.515625 456.777344 42.121094 456.53125 41.746094 C 456.285156 41.375 456.007812 41.027344 455.691406 40.710938 C 455.378906 40.394531 455.035156 40.109375 454.664062 39.859375 C 454.296875 39.609375 453.90625 39.398438 453.492188 39.222656 C 453.082031 39.050781 452.65625 38.921875 452.21875 38.832031 C 451.78125 38.742188 451.335938 38.695312 450.890625 38.695312 C 450.441406 38.691406 450 38.734375 449.5625 38.820312 C 449.125 38.90625 448.695312 39.035156 448.285156 39.203125 C 447.871094 39.375 447.476562 39.582031 447.105469 39.832031 C 446.734375 40.078125 446.390625 40.359375 446.074219 40.675781 C 445.757812 40.992188 445.472656 41.332031 445.222656 41.707031 C 444.976562 42.078125 444.765625 42.46875 444.59375 42.882812 C 444.421875 43.292969 444.292969 43.71875 444.207031 44.15625 C 444.121094 44.597656 444.074219 45.039062 444.074219 45.484375 C 444.078125 45.925781 444.121094 46.363281 444.207031 46.796875 C 444.296875 47.230469 444.421875 47.652344 444.59375 48.058594 C 444.761719 48.46875 444.96875 48.855469 445.210938 49.226562 C 445.457031 49.59375 445.734375 49.933594 446.042969 50.25 C 446.355469 50.5625 446.691406 50.84375 447.058594 51.09375 C 447.421875 51.339844 447.808594 51.550781 448.214844 51.726562 C 448.621094 51.898438 449.039062 52.03125 449.472656 52.125 C 449.90625 52.214844 450.339844 52.265625 450.78125 52.269531 Z M 450.78125 52.269531 " fill-opacity="1" fill-rule="nonzero"/></svg>